<svg width="24" height="28" viewBox="0 0 24 28" fill="none" xmlns="http://www.w3.org/2000/svg">
<path d="M21.913 5.80008L14.0671 1.22675C12.7859 0.480081 11.2009 0.480081 9.90644 1.22675L2.07375 5.80008C0.792515 6.54675 0 7.93341 0 9.44008V18.5601C0 20.0534 0.792515 21.4401 2.07375 22.2001L9.91965 26.7734C11.2009 27.5201 12.7859 27.5201 14.0804 26.7734L21.9263 22.2001C23.2075 21.4534 24 20.0667 24 18.5601V9.44008C23.9868 7.93341 23.1943 6.56008 21.913 5.80008ZM11.9934 7.78675C13.6973 7.78675 15.071 9.17342 15.071 10.8934C15.071 12.6134 13.6973 14.0001 11.9934 14.0001C10.2895 14.0001 8.9158 12.6134 8.9158 10.8934C8.9158 9.18675 10.2895 7.78675 11.9934 7.78675ZM15.5333 20.2134H8.45349C7.3836 20.2134 6.7628 19.0134 7.35718 18.1201C8.25537 16.7734 9.9989 15.8667 11.9934 15.8667C13.9879 15.8667 15.7314 16.7734 16.6296 18.1201C17.224 19.0001 16.59 20.2134 15.5333 20.2134Z" fill="white"/>
</svg>
