<svg width="151" height="83" viewBox="0 0 151 83" fill="none" xmlns="http://www.w3.org/2000/svg">
<path d="M71.0588 0L73.2353 2.17647L60.1765 15.2353L58 13.0588L71.0588 0Z" fill="#F9F7ED"/>
<path d="M81.9412 4.35294L79.7647 2.17647L58 23.9412L60.1765 26.1176L81.9412 4.35294Z" fill="#F9F7ED"/>
<path d="M95 23.9412L92.8235 21.7647L79.7647 34.8235L81.9412 37L95 23.9412Z" fill="#F9F7ED"/>
<path d="M81.9412 10.8824L84.1176 13.0588L62.8971 34.2794L60.7206 32.1029L81.9412 10.8824Z" fill="#F9F7ED"/>
<path d="M90.6471 13.0588L92.8235 15.2353L71.0588 37L68.8824 34.8235L90.6471 13.0588Z" fill="#F9F7ED"/>
<path d="M0 77.5219L3.77495 75.0951C5.28493 77.2522 9.05987 77.3062 9.05987 77.3062C9.92272 77.3062 13.8595 77.3062 13.8595 75.203C13.8595 73.664 11.7838 73.1501 9.27791 72.5298C5.46149 71.5849 0.647134 70.3931 0.647134 64.9567C0.647134 61.7749 3.55924 58 9.65308 58C13.9673 58 16.448 60.0493 17.6344 61.4514L14.3987 64.5792C14.3987 64.5792 12.1877 62.7996 9.59915 62.7996C8.08917 62.7996 5.93206 63.231 5.93206 65.0106C5.93206 66.8969 8.22294 67.4554 10.8969 68.1073C14.6444 69.0209 19.1444 70.1179 19.1444 75.3108C19.1444 78.2229 15.8548 82.0518 9.54522 82.0518C4.20637 82.0518 1.24034 79.4633 0 77.5219Z" fill="#F9F7ED"/>
<path fill-rule="evenodd" clip-rule="evenodd" d="M47.8875 70.5113V72.2909H29.6599C30.7924 76.1198 33.9741 77.0904 36.5087 77.0904C36.5087 77.0904 39.5287 77.0904 42.2251 75.7962L45.1911 80.0025C45.1911 80.0025 41.0387 82.0518 36.4548 82.0518C29.552 82.0518 24.375 77.2522 24.375 70.0259C24.375 63.3928 29.2285 58 36.1312 58C42.1172 58 47.8875 62.2603 47.8875 70.5113ZM36.1312 62.9614C33.5966 62.9614 30.6845 64.3635 29.7138 67.7609H42.5486C41.5779 64.3635 38.6658 62.9614 36.1312 62.9614Z" fill="#F9F7ED"/>
<path d="M70.7815 68.6777V81.4586H76.0665V66.5745C76.0665 66.197 76.0665 58 66.8448 58C66.5212 58 62.207 58 59.8342 60.9121V58.5932H54.5493V81.4586H59.8342V69.1091C59.8342 67.4913 61.0745 62.9614 65.6045 62.9614C70.5658 62.9614 70.7815 67.0059 70.7815 68.6777Z" fill="#F9F7ED"/>
<path fill-rule="evenodd" clip-rule="evenodd" d="M102.733 81.4586V79.1397C99.5512 82.0518 96.3155 82.0518 94.428 82.0518C88.0106 82.0518 82.6718 76.659 82.6718 70.0259C82.6718 63.3928 88.0106 58 94.428 58C96.3155 58 99.5512 58 102.733 60.9121V58.5932H108.018V81.4586H102.733ZM95.2909 77.0904C99.3894 77.0904 102.733 74.1783 102.733 70.0259C102.733 65.8735 99.3894 62.9614 95.2909 62.9614C91.2463 62.9614 87.9567 65.8735 87.9567 70.0259C87.9567 74.1783 91.2463 77.0904 95.2909 77.0904Z" fill="#F9F7ED"/>
<path d="M136.278 68.7856C136.278 66.6824 136.979 62.9614 141.131 62.9614C144.96 62.9614 145.715 66.4127 145.715 68.0306V81.4586H151V66.952C151 64.0399 149.274 58 142.102 58C140.808 58 136.817 58 134.39 62.0446C132.88 59.4561 130.561 58 127.649 58C126.948 58 124.036 58 121.501 60.9121V58.5932H116.217V81.4586H121.501V69.1091C121.501 67.4913 121.933 62.9614 126.301 62.9614C130.238 62.9614 130.993 66.4127 130.993 68.0306V81.4586H136.278V68.7856Z" fill="#F9F7ED"/>
</svg>
